<svg width="426" height="140" viewBox="0 0 426 140" fill="none" xmlns="http://www.w3.org/2000/svg">
<rect width="426" height="140" fill="white"/>
<path d="M329.667 27.7C324.158 24.4891 318.281 23 311.146 23C299.831 23 288.657 26.5726 279.695 33.0548C270.521 39.6921 264.508 48.8019 262.755 58.6998C261.207 67.4921 263.359 75.9004 268.808 82.3948C275.369 90.2176 286.176 94.7044 298.439 94.7044C305.205 94.7044 312.357 93.0479 319.119 89.9184L320.274 89.3793L320.508 88.1263L322.97 74.9811L324.072 69.1213L319.154 72.4835C311.817 77.4955 305.927 79.7314 300.057 79.7314C292.598 79.7314 286.427 77.2533 282.653 72.7665C279.529 69.0487 278.296 64.2611 279.168 59.2842C281.26 47.4697 294.423 37.8508 308.509 37.8508C314.309 37.8508 319.703 40.0448 324.543 44.3726L327.854 47.3374L328.617 42.9678L330.861 30.2736L331.161 28.5791L329.667 27.7ZM208.215 92.8676L220.29 24.4126H232.738C238.286 24.4126 242.634 24.7626 245.806 25.4736C249.008 26.1808 251.605 27.3836 253.593 29.0675C255.609 30.8116 257.068 32.9861 257.971 35.5848C258.903 38.2169 259.128 40.8764 258.649 43.5661C257.79 48.4715 254.783 52.6218 249.648 56.0191C253.823 57.2621 256.906 59.4377 258.903 62.5415C260.935 65.619 261.592 69.1899 260.875 73.2738C259.927 78.6185 256.841 83.1382 251.612 86.8381C248.459 89.1125 245.084 90.6959 241.494 91.5794C237.588 92.4351 232.808 92.8676 227.163 92.8676H208.215ZM231.774 51.625H233.95C236.521 51.625 238.522 51.0802 239.934 49.9885C241.354 48.889 242.272 47.2726 242.705 45.1367C243.125 43.0621 242.819 41.4787 241.816 40.4042C240.803 39.3254 239.127 38.7885 236.791 38.7885H234.353L231.774 51.625ZM226.989 78.7457H232.086C235.82 78.7457 238.665 78.1457 240.63 76.9324C242.705 75.6286 243.918 73.9782 244.273 71.9678C244.625 70.0204 244.037 68.3879 242.506 67.0635C241.012 65.7574 238.049 65.1089 233.61 65.1089H229.435L226.989 78.7457ZM361.51 65.3265C379.886 58.7942 379.338 42.8277 379.338 42.8277C379.338 23.538 355.269 24.3758 355.269 24.3758H336.307L324.25 92.8358H340.569L344.784 68.9081L359.814 92.8358H379.715L361.51 65.3265ZM350.269 53.5366H347.817L350.676 38.7723H353.433C360.571 38.7723 363.682 41.1494 362.757 45.9147C361.771 50.9965 357.612 53.5366 350.269 53.5366Z" fill="#17479E"/>
<path d="M123.85 106.021L122.164 106.922C121.969 106.426 121.752 106.102 121.525 105.96C121.288 105.784 120.954 105.702 120.531 105.702C120.011 105.702 119.556 105.85 119.153 106.138C118.757 106.435 118.524 106.8 118.445 107.241C118.337 107.849 118.703 108.333 119.538 108.703L120.688 109.213C121.628 109.621 122.278 110.121 122.634 110.709C122.999 111.295 123.103 112.015 122.956 112.865C122.747 114.011 122.2 114.96 121.306 115.706C120.405 116.458 119.383 116.833 118.25 116.833C117.168 116.833 116.337 116.513 115.747 115.868C115.165 115.23 114.897 114.331 114.927 113.167L116.903 112.756C116.863 113.482 116.919 113.988 117.086 114.263C117.375 114.803 117.891 115.072 118.631 115.072C119.221 115.072 119.735 114.874 120.196 114.485C120.652 114.093 120.93 113.598 121.04 112.993C121.078 112.756 121.086 112.536 121.059 112.327C121.025 112.133 120.951 111.943 120.835 111.772C120.728 111.607 120.572 111.451 120.37 111.306C120.174 111.154 119.932 111.011 119.645 110.877L118.534 110.382C116.957 109.658 116.295 108.612 116.538 107.22C116.706 106.299 117.201 105.511 118.026 104.88C118.851 104.256 119.803 103.935 120.864 103.935C122.294 103.936 123.289 104.63 123.85 106.021Z" fill="#ED1C24"/>
<path d="M124.304 110.336C124.614 108.592 125.521 107.084 127.026 105.834C128.525 104.573 130.176 103.943 131.968 103.943C133.737 103.943 135.147 104.579 136.189 105.844C137.233 107.112 137.598 108.639 137.283 110.416C136.969 112.195 136.056 113.71 134.559 114.961C133.057 116.209 131.39 116.833 129.581 116.833C127.981 116.833 126.631 116.275 125.55 115.171C124.363 113.936 123.947 112.327 124.304 110.336ZM126.19 110.36C125.948 111.735 126.208 112.864 126.977 113.743C127.734 114.627 128.717 115.073 129.916 115.073C131.221 115.073 132.405 114.621 133.458 113.721C134.517 112.805 135.161 111.698 135.395 110.386C135.633 109.063 135.388 107.956 134.657 107.054C133.94 106.156 132.926 105.709 131.633 105.709C130.339 105.709 129.164 106.156 128.116 107.054C127.066 107.947 126.424 109.051 126.19 110.36Z" fill="#ED1C24"/>
<path d="M137.362 116.608L142.349 103.243L144.907 112.908L151.041 103.243L151.016 116.608H149.095L149.224 109.107L144.116 117.178L141.974 109.098L139.304 116.608H137.362Z" fill="#ED1C24"/>
<path d="M153.406 110.336C153.717 108.592 154.624 107.084 156.129 105.834C157.627 104.573 159.275 103.943 161.071 103.943C162.845 103.943 164.246 104.579 165.289 105.844C166.336 107.112 166.7 108.639 166.387 110.416C166.067 112.195 165.161 113.71 163.657 114.961C162.155 116.209 160.497 116.833 158.683 116.833C157.079 116.833 155.734 116.275 154.658 115.171C153.467 113.936 153.05 112.327 153.406 110.336ZM155.289 110.36C155.046 111.735 155.314 112.864 156.069 113.743C156.835 114.627 157.817 115.073 159.015 115.073C160.321 115.073 161.498 114.621 162.559 113.721C163.616 112.805 164.262 111.698 164.495 110.386C164.731 109.063 164.478 107.956 163.758 107.054C163.037 106.156 162.028 105.709 160.732 105.709C159.438 105.709 158.264 106.156 157.216 107.054C156.171 107.947 155.521 109.051 155.289 110.36Z" fill="#ED1C24"/>
<path d="M175.812 106.021L174.126 106.922C173.929 106.426 173.716 106.102 173.485 105.96C173.247 105.784 172.916 105.702 172.492 105.702C171.973 105.702 171.517 105.85 171.115 106.138C170.722 106.435 170.488 106.8 170.403 107.241C170.3 107.849 170.659 108.333 171.502 108.703L172.651 109.213C173.588 109.621 174.233 110.121 174.598 110.709C174.963 111.295 175.066 112.015 174.918 112.865C174.714 114.011 174.165 114.96 173.269 115.706C172.365 116.458 171.345 116.833 170.212 116.833C169.127 116.833 168.299 116.513 167.703 115.868C167.126 115.23 166.855 114.331 166.889 113.167L168.864 112.756C168.822 113.482 168.879 113.988 169.049 114.263C169.337 114.803 169.849 115.072 170.596 115.072C171.177 115.072 171.697 114.874 172.153 114.485C172.613 114.093 172.894 113.598 173 112.993C173.037 112.756 173.053 112.536 173.02 112.327C172.987 112.133 172.916 111.943 172.802 111.772C172.686 111.607 172.535 111.451 172.335 111.306C172.134 111.154 171.893 111.011 171.605 110.877L170.496 110.382C168.922 109.658 168.258 108.612 168.504 107.22C168.666 106.299 169.161 105.511 169.987 104.88C170.813 104.256 171.763 103.935 172.819 103.935C174.256 103.936 175.253 104.63 175.812 106.021Z" fill="#ED1C24"/>
<path d="M188.872 105.938H183.889L183.35 108.928H188.196L187.884 110.695H183.036L182.308 114.846H187.291L186.975 116.607H180.111L182.323 104.173H189.179L188.872 105.938Z" fill="#ED1C24"/>
<path d="M192.782 104.173L190.887 114.847H194.536L194.224 116.608H188.695L190.902 104.173H192.782Z" fill="#ED1C24"/>
<path d="M204.591 116.474L206.761 104.265H208.592C209.413 104.265 210.05 104.327 210.514 104.457C210.983 104.583 211.362 104.795 211.642 105.096C211.925 105.411 212.132 105.796 212.25 106.262C212.371 106.728 212.389 107.207 212.306 107.682C212.149 108.556 211.686 109.3 210.909 109.907C211.516 110.123 211.956 110.511 212.234 111.066C212.515 111.612 212.593 112.256 212.462 112.982C212.291 113.943 211.813 114.744 211.022 115.401C210.544 115.804 210.034 116.085 209.499 116.244C208.918 116.404 208.218 116.475 207.384 116.475L204.591 116.474ZM207.671 109.504H208.244C208.934 109.504 209.463 109.357 209.836 109.05C210.214 108.75 210.447 108.309 210.551 107.718C210.658 107.14 210.564 106.708 210.295 106.41C210.021 106.111 209.571 105.961 208.951 105.961H208.305L207.671 109.504ZM206.742 114.743H207.879C208.715 114.743 209.352 114.58 209.802 114.25C210.275 113.894 210.557 113.451 210.658 112.91C210.749 112.384 210.626 111.942 210.298 111.584C209.976 111.225 209.312 111.056 208.332 111.056H207.397L206.742 114.743Z" fill="#17479E"/>
<path d="M220.957 113.508H215.729L213.841 116.473H211.854L220.202 103.5L223.726 116.473H221.713L220.957 113.508ZM220.514 111.776L219.442 107.63L216.805 111.776H220.514Z" fill="#17479E"/>
<path d="M224.527 116.474L226.839 103.438L234.088 112.749L235.593 104.266H237.439L235.136 117.222L227.88 107.933L226.366 116.475L224.527 116.474Z" fill="#17479E"/>
<path d="M248.652 104.921L248.26 107.099C247.358 106.204 246.335 105.761 245.197 105.761C243.943 105.761 242.809 106.216 241.787 107.114C240.76 108.011 240.139 109.102 239.907 110.401C239.68 111.689 239.914 112.769 240.631 113.65C241.333 114.53 242.32 114.965 243.575 114.965C244.215 114.965 244.79 114.863 245.283 114.646C245.552 114.542 245.842 114.403 246.139 114.221C246.451 114.044 246.768 113.822 247.121 113.572L246.722 115.801C245.558 116.403 244.405 116.697 243.238 116.697C241.495 116.697 240.118 116.083 239.097 114.871C238.084 113.649 237.736 112.161 238.043 110.423C238.32 108.871 239.078 107.49 240.317 106.265C241.853 104.769 243.629 104.029 245.633 104.029C246.732 104.03 247.742 104.327 248.652 104.921Z" fill="#17479E"/>
<path d="M248.601 110.317C248.914 108.597 249.798 107.122 251.281 105.889C252.751 104.66 254.372 104.038 256.132 104.038C257.871 104.038 259.252 104.664 260.275 105.901C261.306 107.15 261.667 108.643 261.356 110.388C261.043 112.147 260.151 113.632 258.678 114.853C257.192 116.084 255.576 116.698 253.784 116.698C252.214 116.698 250.892 116.148 249.835 115.061C248.661 113.855 248.251 112.27 248.601 110.317ZM250.451 110.34C250.215 111.688 250.473 112.796 251.23 113.665C251.978 114.53 252.936 114.965 254.119 114.965C255.401 114.965 256.56 114.523 257.602 113.645C258.634 112.742 259.268 111.655 259.497 110.37C259.73 109.064 259.489 107.977 258.772 107.093C258.068 106.217 257.077 105.774 255.805 105.774C254.536 105.774 253.382 106.217 252.345 107.093C251.317 107.966 250.685 109.048 250.451 110.34Z" fill="#17479E"/>
<path d="M266.134 116.474L268.301 104.265H270.862C272.091 104.265 273.037 104.39 273.711 104.627C274.422 104.868 275.052 105.268 275.57 105.836C276.622 106.987 276.986 108.498 276.651 110.368C276.319 112.249 275.4 113.764 273.88 114.922C273.113 115.509 272.357 115.912 271.594 116.13C270.876 116.362 269.897 116.473 268.662 116.473L266.134 116.474ZM268.283 114.743H269.11C269.944 114.743 270.636 114.654 271.222 114.477C271.801 114.301 272.347 114.006 272.862 113.601C273.92 112.774 274.562 111.7 274.803 110.368C275.032 109.033 274.778 107.947 274.025 107.113C273.357 106.368 272.233 105.996 270.665 105.996H269.835L268.283 114.743Z" fill="#17479E"/>
<path d="M285.76 105.996H280.855L280.343 108.936H285.09L284.784 110.669H280.035L279.307 114.743H284.207L283.897 116.474H277.157L279.329 104.265H286.062L285.76 105.996Z" fill="#17479E"/>
<path d="M300.934 104.921L300.546 107.099C299.638 106.204 298.616 105.761 297.476 105.761C296.225 105.761 295.088 106.216 294.067 107.114C293.043 108.011 292.416 109.102 292.182 110.401C291.955 111.689 292.204 112.769 292.906 113.65C293.616 114.53 294.592 114.965 295.857 114.965C296.494 114.965 297.067 114.863 297.564 114.646C297.832 114.542 298.119 114.403 298.423 114.221C298.728 114.044 299.052 113.822 299.395 113.572L298.996 115.801C297.843 116.403 296.687 116.697 295.525 116.697C293.779 116.697 292.395 116.083 291.37 114.871C290.367 113.649 290.017 112.161 290.327 110.423C290.599 108.871 291.362 107.49 292.603 106.265C294.135 104.769 295.904 104.029 297.91 104.029C299.007 104.03 300.015 104.327 300.934 104.921Z" fill="#17479E"/>
<path d="M300.882 110.317C301.186 108.597 302.077 107.122 303.561 105.889C305.029 104.66 306.649 104.038 308.409 104.038C310.148 104.038 311.535 104.664 312.565 105.901C313.586 107.15 313.932 108.643 313.631 110.388C313.319 112.147 312.427 113.632 310.96 114.853C309.476 116.084 307.846 116.698 306.065 116.698C304.493 116.698 303.171 116.148 302.111 115.061C300.944 113.855 300.531 112.27 300.882 110.317ZM302.733 110.34C302.495 111.688 302.754 112.796 303.507 113.665C304.257 114.53 305.214 114.965 306.4 114.965C307.677 114.965 308.836 114.523 309.879 113.645C310.911 112.742 311.545 111.655 311.775 110.37C312.009 109.064 311.768 107.977 311.052 107.093C310.348 106.217 309.353 105.774 308.068 105.774C306.803 105.774 305.654 106.217 304.621 107.093C303.595 107.966 302.967 109.048 302.733 110.34Z" fill="#17479E"/>
<path d="M322.89 106.076L321.24 106.964C321.046 106.475 320.831 106.157 320.607 106.011C320.374 105.842 320.047 105.761 319.635 105.761C319.123 105.761 318.67 105.91 318.286 106.197C317.895 106.479 317.66 106.843 317.585 107.28C317.474 107.871 317.833 108.346 318.658 108.71L319.784 109.213C320.703 109.609 321.349 110.101 321.697 110.682C322.057 111.256 322.17 111.964 322.011 112.802C321.814 113.927 321.268 114.851 320.388 115.587C319.504 116.325 318.509 116.695 317.388 116.695C316.325 116.695 315.511 116.382 314.936 115.747C314.359 115.125 314.098 114.235 314.136 113.098L316.07 112.686C316.027 113.402 316.088 113.894 316.246 114.175C316.534 114.698 317.041 114.964 317.769 114.964C318.34 114.964 318.85 114.772 319.292 114.386C319.745 114.006 320.021 113.519 320.129 112.926C320.163 112.692 320.179 112.469 320.143 112.274C320.114 112.077 320.04 111.891 319.934 111.728C319.828 111.567 319.673 111.408 319.477 111.263C319.283 111.125 319.041 110.981 318.759 110.844L317.671 110.361C316.123 109.651 315.472 108.616 315.713 107.258C315.879 106.353 316.363 105.58 317.171 104.96C317.984 104.342 318.906 104.03 319.952 104.03C321.359 104.03 322.342 104.704 322.89 106.076Z" fill="#17479E"/>
<path d="M328.314 105.996L326.447 116.473H324.603L326.466 105.996H323.66L323.967 104.264H331.423L331.112 105.996H328.314Z" fill="#17479E"/>
<path d="M337.198 113.508H331.971L330.088 116.473H328.099L336.449 103.5L339.972 116.473H337.956L337.198 113.508ZM336.759 111.776L335.684 107.63L333.047 111.776H336.759Z" fill="#17479E"/>
<path d="M350.093 111.27L352.951 116.474H350.697L348.104 111.475H347.765L346.878 116.474H345.04L347.207 104.265H349.369C350.977 104.265 352.09 104.575 352.703 105.176C353.37 105.85 353.608 106.742 353.412 107.851C353.263 108.716 352.882 109.455 352.272 110.075C351.666 110.698 350.941 111.094 350.093 111.27ZM348.048 109.874H348.64C350.381 109.874 351.371 109.209 351.609 107.871C351.827 106.62 351.096 105.997 349.4 105.997H348.736L348.048 109.874Z" fill="#17479E"/>
<path d="M358.071 104.265L355.902 116.474H354.06L356.227 104.265H358.071Z" fill="#17479E"/>
<path d="M369.186 104.921L368.79 107.099C367.885 106.204 366.864 105.761 365.729 105.761C364.476 105.761 363.333 106.216 362.316 107.114C361.296 108.011 360.665 109.102 360.438 110.401C360.21 111.689 360.449 112.769 361.154 113.65C361.858 114.53 362.848 114.965 364.096 114.965C364.752 114.965 365.322 114.863 365.813 114.646C366.075 114.542 366.366 114.403 366.673 114.221C366.976 114.044 367.298 113.822 367.643 113.572L367.24 115.801C366.089 116.403 364.929 116.697 363.767 116.697C362.024 116.697 360.644 116.083 359.623 114.871C358.618 113.649 358.268 112.161 358.567 110.423C358.843 108.871 359.607 107.49 360.852 106.265C362.381 104.769 364.146 104.029 366.16 104.029C367.259 104.03 368.266 104.327 369.186 104.921Z" fill="#17479E"/>
<path d="M376.715 113.508H371.485L369.602 116.473H367.617L375.962 103.5L379.483 116.473H377.471L376.715 113.508ZM376.277 111.776L375.203 107.63L372.564 111.776H376.277Z" fill="#17479E"/>
<path d="M209.944 24.4472H34.0674L22 92.8542H197.739L209.944 24.4472Z" fill="#ED1C24"/>
</svg>
