<svg width="358" height="95" viewBox="0 0 358 95" fill="none" xmlns="http://www.w3.org/2000/svg">
<path d="M307.667 4.70004C302.158 1.4891 296.281 0 289.146 0C277.831 0 266.657 3.57261 257.695 10.0548C248.521 16.6921 242.508 25.8019 240.755 35.6998C239.207 44.4921 241.359 52.9004 246.808 59.3948C253.369 67.2176 264.176 71.7044 276.439 71.7044C283.205 71.7044 290.357 70.0479 297.119 66.9184L298.274 66.3793L298.508 65.1263L300.97 51.9811L302.072 46.1213L297.154 49.4835C289.817 54.4955 283.927 56.7314 278.057 56.7314C270.598 56.7314 264.427 54.2533 260.653 49.7665C257.529 46.0487 256.296 41.2611 257.168 36.2842C259.26 24.4697 272.423 14.8508 286.509 14.8508C292.309 14.8508 297.703 17.0448 302.543 21.3726L305.854 24.3374L306.617 19.9678L308.861 7.27358L309.161 5.57909L307.667 4.70004ZM186.215 69.8676L198.29 1.41264H210.738C216.286 1.41264 220.634 1.76259 223.806 2.47365C227.008 3.1808 229.605 4.38357 231.593 6.06746C233.609 7.81162 235.068 9.98611 235.971 12.5848C236.903 15.2169 237.128 17.8764 236.649 20.5661C235.79 25.4715 232.783 29.6218 227.648 33.0191C231.823 34.2621 234.906 36.4377 236.903 39.5415C238.935 42.619 239.592 46.1899 238.875 50.2738C237.927 55.6185 234.841 60.1382 229.612 63.8381C226.459 66.1125 223.084 67.6959 219.494 68.5794C215.588 69.4351 210.808 69.8676 205.163 69.8676H186.215ZM209.774 28.625H211.95C214.521 28.625 216.522 28.0802 217.934 26.9885C219.354 25.889 220.272 24.2726 220.705 22.1367C221.125 20.0621 220.819 18.4787 219.816 17.4042C218.803 16.3254 217.127 15.7885 214.791 15.7885H212.353L209.774 28.625ZM204.989 55.7457H210.086C213.82 55.7457 216.665 55.1457 218.63 53.9324C220.705 52.6286 221.918 50.9782 222.273 48.9678C222.625 47.0204 222.037 45.3879 220.506 44.0635C219.012 42.7574 216.049 42.1089 211.61 42.1089H207.435L204.989 55.7457ZM339.51 42.3265C357.886 35.7942 357.338 19.8277 357.338 19.8277C357.338 0.538036 333.269 1.37579 333.269 1.37579H314.307L302.25 69.8358H318.569L322.784 45.9081L337.814 69.8358H357.715L339.51 42.3265ZM328.269 30.5366H325.817L328.676 15.7723H331.433C338.571 15.7723 341.682 18.1494 340.757 22.9147C339.771 27.9965 335.612 30.5366 328.269 30.5366Z" fill="#17479E"/>
<path d="M101.85 83.0211L100.164 83.922C99.9694 83.4263 99.7518 83.1021 99.5246 82.9603C99.2879 82.7839 98.9542 82.7024 98.5311 82.7024C98.0115 82.7024 97.5561 82.8503 97.1531 83.1383C96.7568 83.4353 96.5241 83.8003 96.4448 84.2407C96.3371 84.849 96.7027 85.3329 97.5382 85.703L98.6879 86.2125C99.6284 86.6205 100.278 87.1212 100.634 87.7094C100.999 88.2955 101.103 89.0149 100.956 89.865C100.747 91.0114 100.2 91.9602 99.3058 92.7058C98.405 93.4582 97.383 93.8327 96.25 93.8327C95.1678 93.8327 94.3373 93.5135 93.7468 92.8677C93.1647 92.2303 92.8973 91.3312 92.9275 90.1669L94.9033 89.7556C94.8625 90.4817 94.9194 90.9885 95.0858 91.2625C95.3754 91.8028 95.8911 92.0724 96.6307 92.0724C97.2206 92.0724 97.7352 91.8737 98.1962 91.4852C98.6517 91.0934 98.9296 90.5978 99.0396 89.9928C99.0781 89.7561 99.0865 89.5356 99.0585 89.3269C99.0251 89.1332 98.9508 88.9435 98.8347 88.7721C98.7281 88.6075 98.5724 88.4512 98.3704 88.3061C98.1745 88.1537 97.9322 88.0108 97.6448 87.8774L96.5336 87.3818C94.9574 86.6585 94.2949 85.612 94.5382 84.22C94.7062 83.2985 95.2013 82.511 96.0257 81.8797C96.8511 81.2563 97.8033 80.9354 98.8638 80.9354C100.294 80.936 101.289 81.6303 101.85 83.0211Z" fill="#ED1C24"/>
<path d="M102.304 87.336C102.614 85.5919 103.521 84.0844 105.026 82.8336C106.525 81.5728 108.176 80.9432 109.968 80.9432C111.737 80.9432 113.147 81.5789 114.189 82.8436C115.233 84.1117 115.598 85.6393 115.283 87.4158C114.969 89.1952 114.056 90.7105 112.559 91.9613C111.057 93.2087 109.39 93.8333 107.581 93.8333C105.981 93.8333 104.631 93.2746 103.55 92.1706C102.363 90.936 101.947 89.3275 102.304 87.336ZM104.19 87.36C103.948 88.7347 104.208 89.8644 104.977 90.7434C105.734 91.627 106.717 92.0729 107.916 92.0729C109.221 92.0729 110.405 91.6214 111.458 90.7205C112.517 89.8052 113.161 88.6979 113.395 87.3863C113.633 86.0629 113.388 84.9562 112.657 84.0542C111.94 83.1556 110.926 82.7085 109.633 82.7085C108.339 82.7085 107.164 83.1556 106.116 84.0542C105.066 84.9472 104.424 86.0507 104.19 87.36Z" fill="#ED1C24"/>
<path d="M115.362 93.6078L120.349 80.2433L122.907 89.9079L129.041 80.2433L129.016 93.6078H127.095L127.224 86.107L122.116 94.1782L119.974 86.0975L117.304 93.6078H115.362Z" fill="#ED1C24"/>
<path d="M131.406 87.336C131.717 85.5919 132.624 84.0844 134.129 82.8336C135.627 81.5728 137.275 80.9432 139.071 80.9432C140.845 80.9432 142.246 81.5789 143.289 82.8436C144.336 84.1117 144.7 85.6393 144.387 87.4158C144.067 89.1952 143.161 90.7105 141.657 91.9613C140.155 93.2087 138.497 93.8333 136.683 93.8333C135.079 93.8333 133.734 93.2746 132.658 92.1706C131.467 90.936 131.05 89.3275 131.406 87.336ZM133.289 87.36C133.046 88.7347 133.314 89.8644 134.069 90.7434C134.835 91.627 135.817 92.0729 137.015 92.0729C138.321 92.0729 139.498 91.6214 140.559 90.7205C141.616 89.8052 142.262 88.6979 142.495 87.3863C142.731 86.0629 142.478 84.9562 141.758 84.0542C141.037 83.1556 140.028 82.7085 138.732 82.7085C137.438 82.7085 136.264 83.1556 135.216 84.0542C134.171 84.9472 133.521 86.0507 133.289 87.36Z" fill="#ED1C24"/>
<path d="M153.812 83.0211L152.126 83.922C151.929 83.4263 151.716 83.1021 151.485 82.9603C151.247 82.7839 150.916 82.7024 150.492 82.7024C149.973 82.7024 149.517 82.8503 149.115 83.1383C148.722 83.4353 148.488 83.8003 148.403 84.2407C148.3 84.849 148.659 85.3329 149.502 85.703L150.651 86.2125C151.588 86.6205 152.233 87.1212 152.598 87.7094C152.963 88.2955 153.066 89.0149 152.918 89.865C152.714 91.0114 152.165 91.9602 151.269 92.7058C150.365 93.4582 149.345 93.8327 148.212 93.8327C147.127 93.8327 146.299 93.5135 145.703 92.8677C145.126 92.2303 144.855 91.3312 144.889 90.1669L146.864 89.7556C146.822 90.4817 146.879 90.9885 147.049 91.2625C147.337 91.8028 147.849 92.0724 148.596 92.0724C149.177 92.0724 149.697 91.8737 150.153 91.4852C150.613 91.0934 150.894 90.5978 151 89.9928C151.037 89.7561 151.053 89.5356 151.02 89.3269C150.987 89.1332 150.916 88.9435 150.802 88.7721C150.686 88.6075 150.535 88.4512 150.335 88.3061C150.134 88.1537 149.893 88.0108 149.605 87.8774L148.496 87.3818C146.922 86.6585 146.258 85.612 146.504 84.22C146.666 83.2985 147.161 82.511 147.987 81.8797C148.813 81.2563 149.763 80.9354 150.819 80.9354C152.256 80.936 153.253 81.6303 153.812 83.0211Z" fill="#ED1C24"/>
<path d="M166.872 82.9379H161.889L161.35 85.9284H166.196L165.884 87.6949H161.036L160.308 91.8463H165.291L164.975 93.6072H158.111L160.323 81.1726H167.179L166.872 82.9379Z" fill="#ED1C24"/>
<path d="M170.782 81.1732L168.887 91.8469H172.536L172.224 93.6078H166.695L168.902 81.1732H170.782Z" fill="#ED1C24"/>
<path d="M182.591 93.4738L184.761 81.2647H186.592C187.413 81.2647 188.05 81.3272 188.514 81.4567C188.983 81.5828 189.362 81.7955 189.642 82.0957C189.925 82.4105 190.132 82.7962 190.25 83.2622C190.371 83.7283 190.389 84.2071 190.306 84.6816C190.149 85.5561 189.686 86.3001 188.909 86.9068C189.516 87.1234 189.956 87.5113 190.234 88.0661C190.515 88.6125 190.593 89.256 190.462 89.9816C190.291 90.9427 189.813 91.7442 189.022 92.4011C188.544 92.8041 188.034 93.0848 187.499 93.2444C186.918 93.4041 186.218 93.4749 185.384 93.4749L182.591 93.4738ZM185.671 86.5039H186.244C186.934 86.5039 187.463 86.3571 187.836 86.0495C188.214 85.7498 188.447 85.3095 188.551 84.7184C188.658 84.1402 188.564 83.7076 188.295 83.4096C188.021 83.111 187.571 82.9614 186.951 82.9614H186.305L185.671 86.5039ZM184.742 91.7431H185.879C186.715 91.7431 187.352 91.5801 187.802 91.2497C188.275 90.8936 188.557 90.451 188.658 89.9096C188.749 89.3838 188.626 88.9418 188.298 88.584C187.976 88.2246 187.312 88.056 186.332 88.056H185.397L184.742 91.7431Z" fill="#17479E"/>
<path d="M198.957 90.5085H193.729L191.841 93.4733H189.854L198.202 80.5L201.726 93.4733H199.713L198.957 90.5085ZM198.514 88.776L197.442 84.6302L194.805 88.776H198.514Z" fill="#17479E"/>
<path d="M202.527 93.4738L204.839 80.4381L212.088 89.7494L213.593 81.2658H215.439L213.136 94.2217L205.88 84.9327L204.366 93.4749L202.527 93.4738Z" fill="#17479E"/>
<path d="M226.652 81.921L226.26 84.0994C225.358 83.2042 224.335 82.761 223.197 82.761C221.943 82.761 220.809 83.2159 219.787 84.1145C218.76 85.0109 218.139 86.102 217.907 87.4008C217.68 88.6889 217.914 89.7695 218.631 90.6502C219.333 91.5298 220.32 91.9652 221.575 91.9652C222.215 91.9652 222.79 91.863 223.283 91.6465C223.552 91.5416 223.842 91.4026 224.139 91.2206C224.451 91.0443 224.768 90.8216 225.121 90.5721L224.722 92.8013C223.558 93.4029 222.405 93.6965 221.238 93.6965C219.495 93.6965 218.118 93.0826 217.097 91.8709C216.084 90.6491 215.736 89.1611 216.043 87.4225C216.32 85.8715 217.078 84.4896 218.317 83.265C219.853 81.7692 221.629 81.0291 223.633 81.0291C224.732 81.0303 225.742 81.3272 226.652 81.921Z" fill="#17479E"/>
<path d="M226.601 87.3165C226.914 85.5969 227.798 84.1223 229.281 82.8894C230.751 81.6598 232.372 81.0381 234.132 81.0381C235.871 81.0381 237.252 81.6637 238.275 82.9011C239.306 84.1497 239.667 85.6427 239.356 87.388C239.043 89.1466 238.151 90.6318 236.678 91.853C235.192 93.0837 233.576 93.6977 231.784 93.6977C230.214 93.6977 228.892 93.1484 227.835 92.0606C226.661 90.8545 226.251 89.27 226.601 87.3165ZM228.451 87.34C228.215 88.6878 228.473 89.7957 229.23 90.6647C229.978 91.5299 230.936 91.9652 232.119 91.9652C233.401 91.9652 234.56 91.5226 235.602 90.6452C236.634 89.7416 237.268 88.6555 237.497 87.3695C237.73 86.0641 237.489 84.9774 236.772 84.0927C236.068 83.217 235.077 82.7744 233.805 82.7744C232.536 82.7744 231.382 83.217 230.345 84.0927C229.317 84.9662 228.685 86.0484 228.451 87.34Z" fill="#17479E"/>
<path d="M244.134 93.4738L246.301 81.2647H248.862C250.091 81.2647 251.037 81.3903 251.711 81.6269C252.422 81.868 253.052 82.2682 253.57 82.8358C254.622 83.9873 254.986 85.4976 254.651 87.3684C254.319 89.2493 253.4 90.7635 251.88 91.9222C251.113 92.5088 250.357 92.9118 249.594 93.13C248.876 93.3616 247.897 93.4727 246.662 93.4727L244.134 93.4738ZM246.283 91.7431H247.11C247.944 91.7431 248.636 91.6543 249.222 91.4774C249.801 91.301 250.347 91.0058 250.862 90.6006C251.92 89.774 252.562 88.7001 252.803 87.3684C253.032 86.0328 252.778 84.9472 252.025 84.1134C251.357 83.3677 250.233 82.996 248.665 82.996H247.835L246.283 91.7431Z" fill="#17479E"/>
<path d="M263.76 82.996H258.855L258.343 85.9362H263.09L262.784 87.6692H258.035L257.307 91.7431H262.207L261.897 93.4738H255.157L257.329 81.2647H264.062L263.76 82.996Z" fill="#17479E"/>
<path d="M278.934 81.921L278.546 84.0994C277.638 83.2042 276.616 82.761 275.476 82.761C274.225 82.761 273.088 83.2159 272.067 84.1145C271.043 85.0109 270.416 86.102 270.182 87.4008C269.955 88.6889 270.204 89.7695 270.906 90.6502C271.616 91.5298 272.592 91.9652 273.857 91.9652C274.494 91.9652 275.067 91.863 275.564 91.6465C275.832 91.5416 276.119 91.4026 276.423 91.2206C276.728 91.0443 277.052 90.8216 277.395 90.5721L276.996 92.8013C275.843 93.4029 274.687 93.6965 273.525 93.6965C271.779 93.6965 270.395 93.0826 269.37 91.8709C268.367 90.6491 268.017 89.1611 268.327 87.4225C268.599 85.8715 269.362 84.4896 270.603 83.265C272.135 81.7692 273.904 81.0291 275.91 81.0291C277.007 81.0303 278.015 81.3272 278.934 81.921Z" fill="#17479E"/>
<path d="M278.882 87.3165C279.186 85.5969 280.077 84.1223 281.561 82.8894C283.029 81.6598 284.649 81.0381 286.409 81.0381C288.148 81.0381 289.535 81.6637 290.565 82.9011C291.586 84.1497 291.932 85.6427 291.631 87.388C291.319 89.1466 290.427 90.6318 288.96 91.853C287.476 93.0837 285.846 93.6977 284.065 93.6977C282.493 93.6977 281.171 93.1484 280.111 92.0606C278.944 90.8545 278.531 89.27 278.882 87.3165ZM280.733 87.34C280.495 88.6878 280.754 89.7957 281.507 90.6647C282.257 91.5299 283.214 91.9652 284.4 91.9652C285.677 91.9652 286.836 91.5226 287.879 90.6452C288.911 89.7416 289.545 88.6555 289.775 87.3695C290.009 86.0641 289.768 84.9774 289.052 84.0927C288.348 83.217 287.353 82.7744 286.068 82.7744C284.803 82.7744 283.654 83.217 282.621 84.0927C281.595 84.9662 280.967 86.0484 280.733 87.34Z" fill="#17479E"/>
<path d="M300.89 83.0758L299.24 83.9644C299.046 83.4749 298.831 83.1567 298.607 83.0111C298.374 82.842 298.047 82.761 297.635 82.761C297.123 82.761 296.67 82.91 296.286 83.1975C295.895 83.4788 295.66 83.8432 295.585 84.2797C295.474 84.8713 295.833 85.3463 296.658 85.7102L297.784 86.2125C298.703 86.6094 299.349 87.1011 299.697 87.6815C300.057 88.2564 300.17 88.9636 300.011 89.8024C299.814 90.9271 299.268 91.8513 298.388 92.5869C297.504 93.3254 296.509 93.6954 295.388 93.6954C294.325 93.6954 293.511 93.3817 292.936 92.7471C292.359 92.1248 292.098 91.2346 292.136 90.0977L294.07 89.6858C294.027 90.4024 294.088 90.8936 294.246 91.1749C294.534 91.6984 295.041 91.9641 295.769 91.9641C296.34 91.9641 296.85 91.7715 297.292 91.3859C297.745 91.0058 298.021 90.5185 298.129 89.9258C298.163 89.6919 298.179 89.4692 298.143 89.2744C298.114 89.0769 298.04 88.891 297.934 88.728C297.828 88.5673 297.673 88.4077 297.477 88.2631C297.283 88.1247 297.041 87.9812 296.759 87.8439L295.671 87.3612C294.123 86.6512 293.472 85.6164 293.713 84.2579C293.879 83.3526 294.363 82.5802 295.171 81.9601C295.984 81.3423 296.906 81.0297 297.952 81.0297C299.359 81.0303 300.342 81.7045 300.89 83.0758Z" fill="#17479E"/>
<path d="M306.314 82.996L304.447 93.4727H302.603L304.466 82.996H301.66L301.967 81.2635H309.423L309.112 82.996H306.314Z" fill="#17479E"/>
<path d="M315.198 90.5085H309.971L308.088 93.4733H306.099L314.449 80.5L317.972 93.4733H315.956L315.198 90.5085ZM314.759 88.776L313.684 84.6302L311.047 88.776H314.759Z" fill="#17479E"/>
<path d="M328.093 88.2704L330.951 93.4738H328.697L326.104 88.4752H325.765L324.878 93.4738H323.04L325.207 81.2647H327.369C328.977 81.2647 330.09 81.575 330.703 82.1761C331.37 82.8498 331.608 83.7422 331.412 84.8512C331.263 85.7158 330.882 86.4548 330.272 87.0748C329.666 87.6983 328.941 88.094 328.093 88.2704ZM326.048 86.8739H326.64C328.381 86.8739 329.371 86.2086 329.609 84.8713C329.827 83.62 329.096 82.9971 327.4 82.9971H326.736L326.048 86.8739Z" fill="#17479E"/>
<path d="M336.071 81.2647L333.902 93.4738H332.06L334.227 81.2647H336.071Z" fill="#17479E"/>
<path d="M347.186 81.921L346.79 84.0994C345.885 83.2042 344.864 82.761 343.729 82.761C342.476 82.761 341.333 83.2159 340.316 84.1145C339.296 85.0109 338.665 86.102 338.438 87.4008C338.21 88.6889 338.449 89.7695 339.154 90.6502C339.858 91.5298 340.848 91.9652 342.096 91.9652C342.752 91.9652 343.322 91.863 343.813 91.6465C344.075 91.5416 344.366 91.4026 344.673 91.2206C344.976 91.0443 345.298 90.8216 345.643 90.5721L345.24 92.8013C344.089 93.4029 342.929 93.6965 341.767 93.6965C340.024 93.6965 338.644 93.0826 337.623 91.8709C336.618 90.6491 336.268 89.1611 336.567 87.4225C336.843 85.8715 337.607 84.4896 338.852 83.265C340.381 81.7692 342.146 81.0291 344.16 81.0291C345.259 81.0303 346.266 81.3272 347.186 81.921Z" fill="#17479E"/>
<path d="M354.715 90.5085H349.485L347.602 93.4733H345.617L353.962 80.5L357.483 93.4733H355.471L354.715 90.5085ZM354.277 88.776L353.203 84.6302L350.564 88.776H354.277Z" fill="#17479E"/>
<path d="M187.944 1.44724H12.0674L0 69.8542H175.739L187.944 1.44724Z" fill="#ED1C24"/>
</svg>
