<svg width="27" height="27" viewBox="0 0 27 27" fill="none" xmlns="http://www.w3.org/2000/svg">
<g clip-path="url(#clip0_1120_41)">
<path d="M15.1314 23.4056C14.9125 23.4056 14.6937 23.3692 14.4748 23.2962C14.256 23.2232 14.0554 23.1138 13.873 22.9679C11.7209 21.2535 10.1159 19.5804 9.05812 17.9484C8.00031 16.3165 7.47141 14.7159 7.47141 13.1467C7.47141 10.8669 8.18269 8.99317 9.60526 7.52537C11.0278 6.05757 12.8699 5.3233 15.1314 5.32257C17.3929 5.32184 19.235 6.05611 20.6575 7.52537C22.0801 8.99463 22.7914 10.8684 22.7914 13.1467C22.7914 14.7152 22.2625 16.3158 21.2047 17.9484C20.1469 19.5811 18.5419 21.2543 16.3898 22.9679C16.2074 23.1138 16.0068 23.2232 15.788 23.2962C15.5691 23.3692 15.3503 23.4056 15.1314 23.4056ZM15.1314 15.1711C15.7333 15.1711 16.2487 14.957 16.6776 14.5288C17.1066 14.1006 17.3207 13.5852 17.32 12.9826C17.3192 12.38 17.1051 11.8649 16.6776 11.4374C16.2501 11.0099 15.7347 10.7955 15.1314 10.794C14.5281 10.7925 14.013 11.007 13.5863 11.4374C13.1595 11.8679 12.945 12.3829 12.9428 12.9826C12.9406 13.5822 13.1551 14.0976 13.5863 14.5288C14.0174 14.9599 14.5325 15.1741 15.1314 15.1711ZM8.56569 27.2083C8.25565 27.2083 7.99594 27.1032 7.78656 26.8931C7.57719 26.683 7.47214 26.4233 7.47141 26.114C7.47068 25.8047 7.57573 25.545 7.78656 25.3349C7.9974 25.1248 8.25711 25.0197 8.56569 25.0197H21.6971C22.0072 25.0197 22.2672 25.1248 22.4773 25.3349C22.6874 25.545 22.7921 25.8047 22.7914 26.114C22.7907 26.4233 22.6856 26.6834 22.4762 26.8942C22.2669 27.105 22.0072 27.2097 21.6971 27.2083H8.56569Z" fill="black"/>
</g>
<defs>
<clipPath id="clip0_1120_41">
<rect width="26.2628" height="26.2628" fill="white" transform="translate(0 0.134003)"/>
</clipPath>
</defs>
</svg>
